<?xml version="1.0"?>
<svg width="60" height="66" xmlns="http://www.w3.org/2000/svg" xmlns:svg="http://www.w3.org/2000/svg">
 <title>baseball wapuu</title>
 <g>
  <title>Layer 1</title>
  <g stroke="null" id="wapuu" fill="none" fill-rule="evenodd">
   <path stroke="null" d="m58.25787,3.65519c-0.36923,-0.0919 -0.97136,-0.13625 -3.39231,-0.13625c-0.78177,0 -1.67041,0.00461 -2.61515,0.00922c-1.0665,0.00532 -2.20508,0.011 -3.34153,0.011c-1.82699,0 -4.38533,-0.01313 -6.20592,-0.11745c-2.91586,-2.11874 -6.27479,-3.24961 -9.9916,-3.36174c-8.05456,-0.24662 -15.18603,3.23364 -19.04769,9.21622c-1.30509,1.24052 -3.76047,2.61978 -4.42438,2.76704c-1.11302,0.24732 -1.83408,1.22171 -1.71373,2.31638c0.08663,0.78916 0.64793,1.67591 1.90048,2.08823c-0.1445,0.14193 -0.28225,0.29097 -0.41042,0.44532c-0.84887,1.02229 -1.2039,2.18439 -0.99976,3.27268c0.04118,0.21822 0.09834,0.42687 0.17112,0.62522c-1.83621,3.124 -2.80225,6.67026 -2.80225,10.31623c0,0.92081 0.06213,1.837 0.18533,2.74432c-0.28899,-0.05003 -0.57941,-0.07558 -0.86982,-0.07558c-1.39669,0 -2.69148,0.60536 -3.55136,1.66065c-0.94971,1.166 -1.28273,2.72587 -0.93764,4.39219c0.70261,3.39403 5.84698,9.11581 9.949,10.10013c0.40402,0.09652 0.78994,0.14584 1.14674,0.14584c1.0974,0 2.00379,-0.46236 2.55302,-1.3019c0.17432,-0.26684 0.30035,-0.55 0.38769,-0.83955c2.79941,1.92961 6.03551,3.12471 9.46367,3.47174c0.74272,2.42213 2.73692,2.82593 3.9813,2.82593c1.87598,0 3.49669,-0.76219 4.65231,-2.16735c0.10438,0.00142 0.20911,0.00248 0.3142,0.00248c0.79314,0 1.7787,-0.05429 2.90627,-0.22816c-3.60923,4.048 -8.82319,6.37752 -12.66248,6.37823l-0.00107,0c-1.61822,0 -3.79207,-0.41268 -4.96011,-2.37636c-1.54545,-2.59813 -4.02285,-4.21229 -6.46474,-4.21229c-2.56509,0 -4.34734,1.81004 -4.43432,4.50362c-0.04722,1.45803 0.71716,3.0438 2.21077,4.58522c2.51255,2.59352 7.38462,5.21045 12.60639,5.21045c1.15385,0 2.28462,-0.12916 3.36071,-0.38393c9.25349,-2.19042 17.5445,-9.5952 19.95621,-17.73945c8.83243,-6.74407 8.13231,-25.28439 5.20545,-33.55107c-0.20308,-0.57377 -0.42249,-1.13584 -0.65787,-1.68442c0.35609,0.04116 0.70828,0.06174 1.05479,0.06174c0.80911,0 1.59728,-0.11354 2.3432,-0.33709c4.59088,-1.37642 6.66497,-4.78252 6.62165,-6.65145c-0.02272,-0.98646 -0.60639,-1.76604 -1.48615,-1.98604" id="all-outline" fill="#000000"/>
   <path stroke="null" d="m43.15243,25.33513c-2.84947,-2.55307 -4.81385,-4.12216 -7.63847,-4.70623c-1.89905,-0.39245 -4.16556,0.11 -6.16508,0.5532c-1.51527,0.33638 -2.82391,0.62735 -3.84213,0.51948c-1.56391,-0.16464 -2.80367,-0.98716 -3.15693,-2.09639c-0.24887,-0.78135 -0.18071,-2.03358 1.55929,-3.564c0.72391,-0.63693 1.59018,-1.16919 2.53988,-1.60174c-1.3697,0.00213 -2.72307,-0.26116 -4.0239,-0.95132c-1.68,2.332 -5.94391,4.02139 -7.2561,3.4391c-0.29148,-0.12952 -0.61704,-0.35165 -0.91775,-0.66142c-0.0284,0.022 -0.05467,0.04613 -0.08307,0.06848c0.34615,0.32397 0.59858,0.77781 0.70757,1.30829c0.22118,1.07552 -0.1555,2.22626 -1.00793,3.07787c-0.74201,0.74197 -1.6768,1.16742 -2.56402,1.16742c-0.62059,0 -1.1503,-0.21574 -1.54722,-0.59258c-1.75527,2.85681 -2.7742,6.21323 -2.7742,9.812c0,1.67555 0.22402,3.29787 0.6355,4.8439c1.76166,1.45129 4.66331,7.21671 5.29633,8.66304c0.03444,0.07912 0.07349,0.17919 0.11361,0.29487c3.01953,2.79045 6.95361,4.60758 11.30485,4.94325c-0.05467,-0.71925 -0.03017,-1.4857 -0.00497,-2.24258c0.03053,-0.92719 0.06249,-1.88632 -0.05858,-2.67406c-0.09976,-0.64829 -0.26627,-1.34377 -0.44272,-2.08006c-0.65716,-2.74539 -1.40272,-5.85733 1.22414,-7.60739c0.50343,-0.33568 1.05089,-0.506 1.62639,-0.506c2.36024,0 4.50568,2.84439 5.61267,5.00713c1.50745,-2.43881 3.98485,-3.9852 6.93088,-4.28362c1.49184,-0.15151 2.98048,0.04188 4.20746,0.49607c0.43278,-1.57336 0.65503,-3.20419 0.65503,-4.85455c0,-1.97468 -0.31314,-3.91635 -0.93053,-5.77216" id="WordPress-blue2" fill="#efefef"/>
   <path stroke="null" d="m30.92947,20.84571c-0.53716,0.10539 -1.06758,0.22248 -1.58059,0.33639c-1.51527,0.33638 -2.82391,0.62735 -3.84213,0.51948c-1.56391,-0.16464 -2.80367,-0.98716 -3.15693,-2.09639c-0.24887,-0.78135 -0.18071,-2.03358 1.55929,-3.564c0.02521,-0.022 0.05361,-0.04187 0.07882,-0.06387c-1.12012,-0.36513 -2.29988,-0.59826 -3.52118,-0.68093c-1.9303,1.30332 -4.36261,2.04564 -5.29776,1.63084c-0.29112,-0.12952 -0.61633,-0.35129 -0.91668,-0.66071c-0.02769,0.02306 -0.05539,0.04577 -0.08379,0.06813c0.34615,0.32396 0.59823,0.7778 0.70722,1.30793c0.22118,1.07552 -0.1555,2.22626 -1.00793,3.07787c-0.74201,0.74197 -1.6768,1.16742 -2.56402,1.16742c-0.62095,0 -1.15101,-0.2161 -1.54793,-0.59329c-1.75491,2.85681 -2.77349,6.21394 -2.77349,9.81271c0,1.67413 0.22012,3.29681 0.6323,4.84106c1.18154,0.97049 2.87645,3.88478 4.05657,6.138c2.25409,1.43391 4.92675,2.26849 7.79681,2.26849c1.58591,0 3.11112,-0.2569 4.54047,-0.72565c-0.05822,-0.253 -0.11893,-0.50954 -0.18213,-0.77354c-0.65716,-2.74539 -1.40272,-5.85733 1.22414,-7.60739c0.50343,-0.33568 1.05089,-0.506 1.62639,-0.506c1.81527,0 3.50095,1.68229 4.6871,3.443c1.67361,-2.36926 2.66024,-5.258 2.66024,-8.37881c0,-3.38197 -1.15775,-6.49106 -3.09479,-8.96074" id="WordPress-blue1" fill="#ffffff"/>
   <path stroke="null" transform="rotate(-62.9317741394043 26.07562255859375,30.948524475097656) " d="m13.527259,46.405986c-0.116371,0.038149 -0.119862,0.03124 -0.020449,-0.040474c0.103657,-0.074746 0.1015,-0.093505 -0.016458,-0.139692c-0.074894,-0.029333 -0.168743,-0.032718 -0.208641,-0.007616c-0.242142,0.152808 -0.948614,-0.310407 -1.376875,-0.902666c-0.134078,-0.185527 -0.18071,-0.212039 -0.182621,-0.10408c-0.004407,0.24765 0.553277,0.788219 1.08028,1.047082c0.354029,0.173889 0.447793,0.249201 0.316212,0.253924c-0.259433,0.009379 -0.621938,-0.196456 -1.042385,-0.591904c-0.196174,-0.184681 -0.356688,-0.304979 -0.356688,-0.267606c0,0.131723 0.678879,0.712063 1.069146,0.913878c0.498085,0.257594 0.507231,0.31887 0.020203,0.135248c-0.653359,-0.246309 -1.25202,-0.888915 -1.25202,-1.343879c0,-0.126081 -0.09942,-0.216624 -0.36608,-0.333257c-0.376636,-0.164724 -0.498416,-0.303709 -0.195264,-0.222828c0.240069,0.064029 0.163595,0.005853 -0.335737,-0.255547c-0.355355,-0.185949 -0.477219,-0.310127 -0.671644,-0.683857c-0.169991,-0.326768 -0.189439,-0.397565 -0.068329,-0.249061c0.193762,0.237567 0.223188,0.141596 0.05087,-0.165992c-0.063922,-0.114094 -0.117535,-0.277196 -0.119114,-0.362308c-0.00158,-0.085182 0.097755,0.041673 0.220776,0.281778c0.258685,0.504607 0.471486,0.687102 1.037731,0.889552c0.397001,0.141947 0.446792,0.181293 0.446792,0.353211c0,0.045623 0.033163,0.082997 0.073731,0.082997c0.185702,0 -0.045468,-0.356314 -0.325929,-0.502352c-0.710886,-0.370134 -1.215035,-1.046729 -1.203146,-1.614518c0.00507,-0.242573 0.006812,-0.243629 0.067166,-0.040969c0.083123,0.278676 0.292018,0.662914 0.486027,0.893851c0.145388,0.173045 0.962583,0.599875 1.148447,0.599875c0.182874,0 0.057526,-0.140609 -0.214959,-0.241234c-0.347796,-0.128336 -0.88893,-0.606783 -1.053357,-0.931365c-0.124269,-0.245323 -0.160592,-0.819811 -0.051779,-0.819811c0.035737,0 0.113798,0.137575 0.173312,0.305754c0.0596,0.16818 0.267577,0.479432 0.462256,0.691826c0.286694,0.312875 0.454104,0.415476 0.881364,0.540148c0.406894,0.118818 0.507893,0.177909 0.441976,0.258931c-0.060763,0.074746 -0.049791,0.171987 0.038071,0.337132c0.067997,0.127703 0.144633,0.33382 0.170569,0.458209c0.058351,0.280863 0.264587,0.485499 0.939722,0.932637c0.29077,0.192716 0.583641,0.418155 0.650772,0.50101c0.117196,0.144908 0.111767,0.145474 -0.138309,0.013469c-0.143224,-0.075592 -0.339559,-0.137293 -0.436398,-0.137293c-0.267662,0 -0.947204,-0.409412 -1.166408,-0.702756c-0.107226,-0.143499 -0.241141,-0.418015 -0.297497,-0.610241c-0.108397,-0.369217 -0.32028,-0.639996 -0.32028,-0.409199c0,0.068469 0.052033,0.168531 0.115624,0.222405c0.063591,0.053943 0.140149,0.245816 0.170076,0.426477c0.064253,0.388398 0.369902,0.729902 0.868318,0.970149c0.19293,0.09301 0.493092,0.285023 0.66699,0.426617c-0.038071,-0.03173 -0.127767,0.160775 -0.176063,0.144345l0.000001,0zm-2.509442,-1.967798c-0.184623,-0.086806 -0.455021,-0.271555 -0.600826,-0.410541c-0.145882,-0.139126 -0.2857,-0.231854 -0.310803,-0.206185c-0.078632,0.080246 0.454196,0.565179 0.735242,0.669331c0.424594,0.157248 0.545958,0.121003 0.176387,-0.052604zm27.706791,2.593835c0,-0.043861 0.086875,-0.101967 0.193,-0.129114c0.106126,-0.02722 0.426406,-0.22297 0.711712,-0.43508c0.447489,-0.33269 0.485214,-0.348628 0.274728,-0.11621c-0.39143,0.432259 -1.17944,0.886871 -1.17944,0.680403zm-0.243982,-0.298421c0,-0.01918 0.137293,-0.11882 0.304979,-0.22149c0.612566,-0.374858 0.992431,-0.748943 1.176476,-1.158566c0.122696,-0.272823 0.234815,-0.411527 0.33269,-0.411527c0.390584,0 1.10956,-0.920576 1.491398,-1.909484l0.112121,-0.290523l-0.029265,0.415054c-0.054014,0.766923 -0.53902,1.524187 -1.173023,1.831211c-0.167049,0.081093 -0.260341,0.162114 -0.207173,0.180237c0.123049,0.041886 0.464625,-0.173751 0.875378,-0.5527l0.321479,-0.296516l-0.206328,0.290594c-0.195679,0.275502 -0.900975,0.830175 -1.055756,0.830175c-0.039629,0 -0.072136,-0.05486 -0.072136,-0.12192c0,-0.223041 -0.224591,-0.039348 -0.276632,0.226212c-0.086452,0.440792 -1.026703,1.223934 -1.469609,1.223934c-0.06854,0 -0.124601,-0.015582 -0.124601,-0.034692zm-0.569412,-0.215426c0,-0.033988 0.113178,-0.109651 0.251387,-0.168038c0.567437,-0.239893 1.206165,-0.737518 1.371664,-1.068517c0.091529,-0.1832 0.166488,-0.390584 0.166488,-0.460889c0,-0.085536 0.077565,-0.127844 0.234462,-0.127844c0.4281,0 1.021698,-0.833702 1.226755,-1.72283c0.133557,-0.57893 0.246874,-0.628291 0.246874,-0.107535c0,0.799925 -0.514197,1.651114 -1.178592,1.951017c-0.351519,0.158588 -0.441779,0.241796 -0.486133,0.447912c-0.095899,0.445586 -0.94286,1.152431 -1.507264,1.257711c-0.179038,0.033424 -0.32564,0.033003 -0.32564,-0.000988zm-0.555519,-0.306529c0.052958,-0.065157 0.193564,-0.16966 0.312313,-0.232418c0.599449,-0.316404 1.299244,-1.114353 1.300232,-1.482796c0.000353,-0.119453 0.045905,-0.146038 0.198852,-0.116279c0.152102,0.029686 0.274798,-0.040618 0.525763,-0.301665c0.267675,-0.278394 0.381064,-0.506794 0.621943,-1.25348c0.161976,-0.50228 0.320421,-0.940816 0.351941,-0.974662c0.031593,-0.033848 0.052041,0.285375 0.045555,0.709241c-0.008322,0.536975 -0.054438,0.862332 -0.152313,1.072608c-0.168462,0.362308 -0.657838,0.894699 -0.82249,0.894699c-0.064946,0 -0.118115,0.034904 -0.118115,0.077425c0,0.042662 -0.100342,0.089413 -0.22304,0.103868c-0.139479,0.01636 -0.233545,0.083632 -0.251455,0.179462c-0.030887,0.166276 -0.140891,0.320562 -0.591977,0.830881c-0.228398,0.258298 -0.405039,0.363367 -0.793579,0.47189c-0.409905,0.114446 -0.482535,0.118323 -0.40363,0.021225l0,-0.000001zm-2.194928,-0.350321c0.053661,-0.087862 0.235449,-0.238693 0.40384,-0.335299c0.394533,-0.226356 1.004843,-0.939335 1.185361,-1.384992c0.106479,-0.26281 0.196456,-0.359486 0.36661,-0.39418c0.167261,-0.034199 0.266405,-0.137575 0.384025,-0.400951c0.196315,-0.439098 0.477108,-1.414537 0.523999,-1.820211c0.039489,-0.341293 0.272683,-0.757405 0.384873,-0.686679c0.040547,0.025669 0.052747,0.081306 0.026936,0.123897c-0.025666,0.04245 -0.006699,0.077212 0.042239,0.077212c0.063816,0 0.063252,0.049222 -0.001974,0.173681c-0.0684,0.130453 -0.065368,0.236719 0.012481,0.428381c0.114446,0.28199 0.159506,1.377232 0.059304,1.440416c-0.034905,0.021999 -0.122909,0.167825 -0.195468,0.324018c-0.072702,0.156191 -0.199911,0.305965 -0.282697,0.332832c-0.082925,0.026794 -0.173819,0.123189 -0.202096,0.214013c-0.034836,0.111908 -0.098157,0.150127 -0.196104,0.118396c-0.245534,-0.079541 -0.405956,0.043014 -0.507076,0.387271c-0.12326,0.420199 -0.759802,1.117597 -1.08396,1.187617c-0.134191,0.029053 -0.325077,0.069458 -0.42415,0.089908c-0.13151,0.027078 -0.165852,0.076156 -0.127069,0.181575c0.045271,0.123473 0.03413,0.128831 -0.077001,0.036598c-0.08744,-0.072419 -0.147308,-0.079258 -0.182705,-0.020731c-0.028982,0.047878 -0.08744,0.087085 -0.130032,0.087085c-0.04245,0 -0.033141,-0.071925 0.020663,-0.159857zm1.528982,-0.076649c0.833562,-0.647753 1.30277,-1.249181 1.30277,-1.669591c0,-0.093081 0.050629,-0.169378 0.112401,-0.169378c0.330153,0 0.877492,-0.899281 1.201017,-1.973229c0.20393,-0.677087 0.20936,-0.68696 0.347851,-0.632665c0.091953,0.035964 0.09012,0.085044 -0.010718,0.291229c-0.098016,0.200547 -0.102741,0.293626 -0.02461,0.485991c0.110991,0.27346 0.00825,0.917687 -0.226425,1.419897c-0.161057,0.344608 -0.666439,0.8239 -0.868747,0.8239c-0.125024,0 -0.207247,0.141384 -0.217259,0.373591c-0.002045,0.045623 -0.028559,0.101682 -0.058951,0.124529c-0.030461,0.022776 -0.177345,0.201393 -0.326344,0.396861c-0.313159,0.410328 -0.588875,0.575756 -1.129091,0.676945l-0.385226,0.072138l0.283331,-0.220219zm3.501507,0.070444c0,-0.06847 0.03554,-0.18059 0.078835,-0.249061c0.070165,-0.110638 0.078838,-0.110638 0.078838,0c0,0.068471 -0.035469,0.18059 -0.078838,0.249061c-0.070091,0.11071 -0.078835,0.11071 -0.078835,0zm-25.54339,-0.083067c-0.06706,-0.044212 -0.205552,-0.080952 -0.307729,-0.081727c-0.327346,-0.002187 -0.984612,-0.40497 -1.233736,-0.755924c-0.131173,-0.184821 -0.314209,-0.566944 -0.406725,-0.849074c-0.153202,-0.467447 -0.198917,-0.526398 -0.513133,-0.661081c-0.189686,-0.081376 -0.363168,-0.148717 -0.385528,-0.149634c-0.110476,-0.004512 -0.525762,-0.496992 -0.737646,-0.874742c-0.264587,-0.471819 -0.272316,-0.510955 -0.159767,-0.813113c0.105731,-0.283895 0.281709,-0.201322 0.395259,0.185385c0.049791,0.169518 0.261421,0.505313 0.4704,0.746193c0.476549,0.549315 0.989513,0.866634 1.343288,0.831094c0.296341,-0.029757 0.404899,-0.20506 0.179638,-0.289959c-0.249547,-0.093998 -0.990098,-0.774399 -1.174721,-1.079238c-0.132914,-0.219513 -0.164251,-0.373167 -0.133245,-0.653465c0.028346,-0.257028 0.013129,-0.350954 -0.05104,-0.314427c-0.061341,0.035047 -0.0601,0.017487 0.003745,-0.053097c0.052449,-0.057965 0.075973,-0.156826 0.052364,-0.219796c-0.023693,-0.0629 -0.024441,-0.114377 -0.001664,-0.114377c0.07182,0 0.41047,0.609182 0.53067,0.954707c0.238313,0.684774 1.029079,1.36983 1.581439,1.36983l0.322129,0l-0.19011,0.157107c-0.163271,0.134896 -0.17707,0.184681 -0.097664,0.352719c0.050842,0.107678 0.17382,0.376551 0.273176,0.597547c0.168532,0.374436 0.695704,0.880946 0.923891,0.887576c0.04922,0.00141 0.193564,0.096111 0.320845,0.210347c0.189827,0.170364 0.21345,0.229739 0.131582,0.330504c-0.067765,0.083279 -0.130806,0.096466 -0.196244,0.041041c-0.053098,-0.044918 -0.283895,-0.122696 -0.512999,-0.172832c-0.515114,-0.112825 -1.069534,-0.58295 -1.23071,-1.043839c-0.062096,-0.177416 -0.150536,-0.4159 -0.196505,-0.530063c-0.046054,-0.114094 -0.086783,-0.235521 -0.09052,-0.269791c-0.003744,-0.034272 -0.034249,-0.062264 -0.067836,-0.062264c-0.033495,0 -0.08844,0.000563 -0.122027,0.001267c-0.033495,0.000706 -0.109221,0.032508 -0.168242,0.070728c-0.087615,0.056694 -0.081706,0.151607 0.032007,0.517511c0.175308,0.56377 0.4423,0.861344 1.010696,1.1262c0.246028,0.114587 0.511377,0.266969 0.589719,0.338473c0.270567,0.247014 0.119664,0.469914 -0.183058,0.270215zm19.195604,-0.052676c-0.000494,-0.039489 0.287913,-0.351942 0.640913,-0.694434c0.684845,-0.664466 0.985805,-1.088827 0.986297,-1.390491c0.000282,-0.141241 0.047529,-0.186794 0.193706,-0.186794c0.106405,0 0.23672,-0.05331 0.289678,-0.118467c0.113317,-0.139266 0.493958,-2.023929 0.438603,-2.171306c-0.020872,-0.055495 0.00113,-0.125588 0.048938,-0.155767c0.047739,-0.030042 0.086876,-0.143781 0.086876,-0.252517c0,-0.108734 0.038994,-0.222333 0.086664,-0.252444c0.130594,-0.082361 0.324863,0.226214 0.277053,0.439944c-0.022987,0.103093 0.016712,0.303006 0.088215,0.444248c0.214083,0.422456 0.087649,1.63123 -0.217117,2.075688c-0.081798,0.119311 -0.125375,0.240668 -0.096817,0.26972c0.028487,0.029123 -0.054933,0.053592 -0.185455,0.054227c-0.322679,0.001763 -0.412304,0.074253 -0.566451,0.458279c-0.072631,0.180943 -0.318657,0.523999 -0.546704,0.76213c-0.341436,0.356736 -0.479998,0.442976 -0.786105,0.489516c-0.204281,0.031098 -0.453835,0.111344 -0.554532,0.178404c-0.100625,0.06699 -0.18334,0.089556 -0.183762,0.050065zm-1.239731,-0.344395c-0.22593,-0.047881 -0.172479,-0.144769 0.31337,-0.568496c0.594022,-0.517864 1.20003,-1.320257 1.148624,-1.520873c-0.026514,-0.103236 0.023482,-0.181649 0.154358,-0.242501c0.180872,-0.084127 0.193495,-0.134334 0.193495,-0.771651c0,-1.03333 0.23143,-2.144439 0.446573,-2.144439c0.055848,0 0.123049,0.135317 0.14935,0.300818c0.026304,0.165499 0.108735,0.369499 0.18313,0.453413c0.161974,0.182634 0.230373,1.506348 0.106829,2.067508c-0.048513,0.220501 -0.048795,0.386494 -0.000493,0.445868c0.055424,0.068258 -0.037302,0.099498 -0.333749,0.112543c-0.469208,0.020519 -0.457503,0.014455 -0.493889,0.257944c-0.015092,0.100554 -0.070868,0.227201 -0.123896,0.281355c-0.053098,0.054227 -0.096535,0.134191 -0.096535,0.17784c0,0.150269 -0.415618,0.635061 -0.650926,0.759238c-0.129679,0.0684 -0.326981,0.12446 -0.438466,0.12446c-0.111555,0 -0.25061,0.066778 -0.309139,0.148505c-0.058456,0.081727 -0.170293,0.135037 -0.248637,0.118468zm-1.455929,-0.178335l-0.215564,-0.047175l0.219583,-0.46815c0.120652,-0.257451 0.336359,-0.603963 0.479364,-0.770168c0.142864,-0.166135 0.334384,-0.451228 0.425489,-0.63351c0.199628,-0.399327 0.155698,-0.431482 -0.538949,-0.394814c-0.404193,0.021296 -0.482535,0.050982 -0.50651,0.191237c-0.088144,0.516947 -0.726238,1.452827 -0.9906,1.452827c-0.038219,0 -0.081092,0.080668 -0.095406,0.179249c-0.02595,0.178827 -0.229175,0.262528 -0.438394,0.18059c-0.225648,-0.088356 -0.210629,-0.352224 0.041392,-0.726025c0.13694,-0.203156 0.24899,-0.409412 0.24899,-0.45821c0,-0.048866 0.033142,-0.08885 0.073618,-0.08885c0.127844,0 0.512999,-0.754019 0.470265,-0.920787c-0.029968,-0.116563 0.011425,-0.172482 0.154993,-0.209291c0.230163,-0.058951 0.225791,-0.016499 0.07101,-0.686747c-0.136447,-0.590637 -0.148225,-2.146062 -0.017629,-2.313185c0.126291,-0.16162 0.289113,-0.122485 0.345453,0.082997c0.059515,0.216835 0.102038,0.321974 0.437125,1.081636c0.248073,0.562147 0.45151,1.415593 0.428734,1.798069c-0.015513,0.258158 0.069314,0.308081 0.459406,0.270073l0.315627,-0.030743l0.003383,-1.266668c0.003032,-1.078179 0.025386,-1.300726 0.150621,-1.49577c0.137928,-0.214789 0.153794,-0.219726 0.254067,-0.079823c0.058811,0.08208 0.106972,0.214014 0.106972,0.293062c0,0.079116 0.097875,0.262598 0.217681,0.407929c0.15887,0.192649 0.227341,0.383253 0.253573,0.705648c0.027007,0.332198 0.063746,0.430636 0.148363,0.397565c0.061843,-0.024257 0.112332,-0.001623 0.112332,0.050418c0,0.05197 -0.052112,0.114869 -0.115857,0.139903c-0.083771,0.03279 -0.115011,0.190461 -0.112894,0.569905c0.002608,0.452143 0.027007,0.536481 0.176921,0.610592c0.140466,0.069386 0.076228,0.087014 -0.334524,0.091458c-0.517158,0.005782 -0.546352,0.026725 -0.511165,0.36696c0.008672,0.084408 -0.059867,0.22565 -0.152455,0.313723c-0.092515,0.088004 -0.222263,0.266548 -0.288265,0.39672c-0.144134,0.284459 -0.577381,0.671657 -0.751553,0.671657c-0.087227,0 -0.111696,0.052958 -0.080668,0.174244c0.024539,0.095831 0.023058,0.152171 -0.003385,0.125235c-0.026372,-0.026936 -0.087933,-0.018756 -0.1368,0.018193c-0.048866,0.03702 -0.185809,0.045977 -0.304345,0.020026zm-15.097888,-0.400597c-0.512153,-0.274374 -0.620746,-0.379794 -0.793086,-0.769744c-0.080035,-0.181296 -0.176641,-0.329589 -0.214649,-0.329589c-0.037867,0 -0.068964,-0.069175 -0.068964,-0.153652c0,-0.317319 -0.17784,-0.688301 -0.305825,-0.638235c-0.100696,0.039419 -0.10535,0.025739 -0.025033,-0.073052c0.082291,-0.101261 0.039912,-0.152173 -0.252797,-0.303781c-0.976602,-0.505947 -1.514753,-1.396766 -1.202949,-1.991351c0.068245,-0.130101 0.057435,-0.160635 -0.056941,-0.160635c-0.107649,0 -0.118621,-0.022987 -0.046138,-0.096959c0.119538,-0.12199 0.393426,0.155487 0.628425,0.636542c0.276639,0.566167 0.991537,1.228588 1.557492,1.443026c0.472311,0.179107 0.496428,0.201249 0.442201,0.408142c-0.065368,0.249554 0.060573,1.012952 0.167121,1.012952c0.038783,0 0.070586,0.040123 0.070586,0.089132c0,0.049077 0.201321,0.276914 0.447349,0.50637c0.246028,0.229527 0.447348,0.446574 0.447348,0.482395c0,0.164581 -0.434797,0.130876 -0.794143,-0.061561zm1.501835,-0.056906c-0.06967,-0.071079 -0.173116,-0.129253 -0.22981,-0.129253c-0.182917,0 -0.729622,-0.438534 -0.854928,-0.685904c-0.130453,-0.25752 -0.168391,-0.474214 -0.182987,-1.046376c-0.008743,-0.338897 -0.022423,-0.359981 -0.210276,-0.323312c-0.110427,0.021578 -0.181506,0.007263 -0.157813,-0.031804c0.023693,-0.039065 0.09576,-0.071079 0.16014,-0.071079c0.064521,0 0.116068,-0.027995 0.114658,-0.062264c-0.004584,-0.110497 -0.215988,-0.352787 -0.307729,-0.352787c-0.048938,0 -0.285587,-0.196175 -0.525833,-0.435785c-0.44199,-0.441004 -0.709313,-0.995746 -0.709313,-1.471725c0,-0.119805 -0.043861,-0.26253 -0.097593,-0.317319c-0.075874,-0.077496 -0.043861,-0.09964 0.144063,-0.09964c0.220008,0 0.285093,0.075099 0.728,0.841036c0.449253,0.776867 0.992573,1.400364 1.220408,1.400364c0.052111,0 0.161057,0.074746 0.242009,0.166133c0.080951,0.091247 0.205623,0.167123 0.276983,0.168461c0.110851,0.002187 0.109017,0.01481 -0.012692,0.087227c-0.149141,0.088708 -0.197302,0.32543 -0.066074,0.32543c0.041887,0 0.056413,0.124951 0.032085,0.277617c-0.057258,0.360121 0.09717,0.653183 0.617361,1.171963c0.413079,0.411951 0.514832,0.625754 0.297785,0.625754c-0.063534,0 -0.168601,0.020872 -0.233616,0.046328c-0.064945,0.025455 -0.17509,-0.011918 -0.244829,-0.083068zm1.653512,-0.144274c-0.110568,-0.041957 -0.22036,-0.102952 -0.244053,-0.13553c-0.023622,-0.032508 -0.152807,-0.096042 -0.286997,-0.141102c-0.319505,-0.107324 -0.682235,-0.829964 -0.749225,-1.492949c-0.039277,-0.387905 -0.079754,-0.487401 -0.213027,-0.523012c-0.160634,-0.042873 -0.16035,-0.045482 0.012482,-0.110709c0.097382,-0.036738 0.176077,-0.096042 0.174879,-0.131721c-0.0012,-0.035753 -0.216483,-0.220503 -0.478517,-0.410613c-0.73773,-0.535211 -0.88525,-0.78152 -0.95111,-1.587933c-0.046611,-0.569905 -0.036174,-0.681389 0.063816,-0.681389c0.148081,0 0.411668,0.287491 0.58563,0.639008c0.385789,0.779195 0.944693,1.404877 1.581093,1.770005c0.187077,0.107183 0.340025,0.216623 0.340025,0.243066c0,0.026443 -0.082291,0.084901 -0.182987,0.12996c-0.161198,0.072207 -0.179531,0.13151 -0.153935,0.49699c0.034904,0.498686 0.238553,0.931791 0.622156,1.323363c0.425207,0.43395 0.354833,0.792662 -0.120229,0.612565zm8.538414,0.017629c0,-0.044212 -0.053097,-0.059585 -0.118041,-0.034199c-0.229951,0.090047 -0.092163,-0.638094 0.274233,-1.449161c0.19427,-0.429931 0.318941,-0.80606 0.280088,-0.844561c-0.038643,-0.038148 -0.180097,-0.085394 -0.314287,-0.104786c-0.156473,-0.022776 -0.092517,-0.039983 0.178262,-0.048021c0.232207,-0.006769 0.441498,-0.044283 0.46512,-0.083207c0.023482,-0.038855 -0.043014,-0.354834 -0.148012,-0.701981c-0.104856,-0.347076 -0.177558,-0.64458 -0.161339,-0.661221c0.01622,-0.016573 -0.018756,-0.289042 -0.077778,-0.605516c-0.114305,-0.612778 -0.051406,-1.032063 0.15485,-1.032063c0.175795,0 0.724545,1.313629 1.222384,2.926316c0.080246,0.260342 0.168955,0.397213 0.260835,0.402642c0.086945,0.005076 0.062831,0.031943 -0.064098,0.071432c-0.111908,0.034765 -0.303496,0.045129 -0.425842,0.023129c-0.145262,-0.026232 -0.233758,-0.000635 -0.255054,0.073758c-0.01798,0.062689 -0.097733,0.356736 -0.177274,0.653536c-0.097946,0.364847 -0.232631,0.634848 -0.41604,0.833702c-0.149212,0.161762 -0.271345,0.337769 -0.271345,0.39143c0,0.053522 -0.070726,0.135954 -0.157248,0.183198c-0.195681,0.106903 -0.249413,0.108101 -0.249413,0.005571l-0.000001,0.000001zm-7.071625,-0.227977c-0.064451,-0.026372 -0.277549,-0.204846 -0.473581,-0.396649c-0.415406,-0.406308 -0.5448,-0.829682 -0.461311,-1.510789c0.048091,-0.393406 0.037656,-0.441285 -0.097875,-0.445939c-0.132216,-0.004583 -0.129325,-0.014455 0.023059,-0.077214c0.222969,-0.091811 0.321196,-0.249625 0.155415,-0.249625c-0.06974,0 -0.126715,-0.037373 -0.126715,-0.083066c0,-0.045623 -0.037796,-0.082927 -0.083914,-0.082927c-0.093573,0 -0.553615,-0.507217 -0.706492,-0.778982c-0.152807,-0.271624 -0.511095,-1.395214 -0.511095,-1.500212c0,-0.024963 0.02743,-0.039417 0.060996,-0.032084c0.033565,0.007192 0.125517,-0.015656 0.204423,-0.050842c0.174384,-0.077849 0.349333,0.057328 0.524352,0.405181c0.070656,0.140254 0.345736,0.591271 0.611298,1.002233c0.51878,0.802535 1.056037,1.323291 1.29861,1.258487c0.081163,-0.021578 0.127279,-0.005993 0.10267,0.034694c-0.02468,0.040616 -0.161973,0.104715 -0.305119,0.142301c-0.229951,0.060431 -0.263446,0.106195 -0.286645,0.391923c-0.033918,0.417805 0.123684,0.994408 0.381629,1.396697c0.156685,0.244195 0.184467,0.350672 0.119171,0.456587c-0.093433,0.151325 -0.247861,0.19462 -0.428874,0.120227zm5.261781,-0.084477c-0.260625,-0.109158 -0.304979,-0.16543 -0.304556,-0.386283c0.000564,-0.338686 0.132498,-0.818682 0.373801,-1.361016c0.107325,-0.241092 0.195116,-0.475485 0.195116,-0.520896c0,-0.178263 -0.419213,-0.250118 -0.855351,-0.146602c-0.425561,0.100979 -0.428874,0.104222 -0.487684,0.479221c-0.246239,1.568331 -0.283471,1.729388 -0.411597,1.779594c-0.060996,0.023975 -0.131089,0.010295 -0.155627,-0.030179c-0.024469,-0.040476 -0.128056,-0.058176 -0.230163,-0.039277c-0.159083,0.029404 -0.198711,-0.015795 -0.277549,-0.317037c-0.097592,-0.372955 -0.031379,-0.827285 0.200265,-1.375401c0.064451,-0.152314 0.09583,-0.363154 0.06988,-0.468715c-0.030745,-0.124883 -0.006558,-0.207737 0.069246,-0.237426c0.089202,-0.034904 0.032367,-0.176288 -0.242855,-0.603963c-0.527948,-0.820375 -0.80056,-1.949113 -0.515185,-2.132806c0.187994,-0.121073 0.367032,-0.022281 0.430989,0.237707c0.046752,0.190392 0.380853,0.726449 0.540288,0.866986c0.02588,0.022848 -0.021365,-0.114729 0.101683,0.166064c0.122908,0.280792 0.412303,0.697113 0.787445,1.133179c0.206398,0.239894 0.347287,0.320633 0.640702,0.366751c0.461239,0.072488 0.528865,0.037726 0.382687,-0.196738c-0.141876,-0.227765 -0.383251,-0.956822 -0.390373,-1.178663c-0.00289,-0.091318 -0.057752,-0.3628 -0.121921,-0.603329c-0.097594,-0.365974 -0.099074,-0.477671 -0.009237,-0.684916c0.190532,-0.43924 0.291016,-0.332832 0.765937,0.810857c0.080528,0.194129 0.170225,0.352859 0.199276,0.352859c0.029052,0 0.097733,0.1588 0.152595,0.352787c0.05486,0.194128 0.221489,0.539653 0.370277,0.767911c0.418719,0.642466 0.430144,0.75522 0.087581,0.870653c-0.293979,0.098932 -0.368161,0.207597 -0.186233,0.272541c0.074607,0.026656 0.063677,0.080107 -0.040616,0.200263c-0.078342,0.090119 -0.142439,0.204565 -0.142439,0.25428c0,0.185313 -0.31725,0.837156 -0.485146,0.996803c-0.09576,0.091037 -0.179884,0.244899 -0.187149,0.342c-0.007121,0.0971 -0.014384,0.172974 -0.016006,0.168532c-0.001692,-0.004444 -0.140254,-0.065509 -0.308081,-0.135743zm15.800361,-0.188275c0.047881,-0.091318 0.105422,-0.166064 0.127774,-0.166064c0.022355,0 0.00148,0.074746 -0.046398,0.166064c-0.047881,0.091317 -0.105351,0.166062 -0.127704,0.166062c-0.022423,0 -0.001551,-0.074746 0.046328,-0.166062zm-19.331344,-0.046258c-0.026725,-0.071151 -0.093432,-0.111768 -0.148223,-0.090331c-0.05472,0.021436 -0.089978,0.050347 -0.229316,-0.115646c-0.139338,-0.166062 -0.338121,-0.816495 -0.270708,-0.88539c0.022494,-0.022917 0.010437,-0.123189 -0.026655,-0.222827c-0.044707,-0.120018 -0.029193,-0.234606 0.045835,-0.339392c0.140961,-0.196738 0.148364,-0.54064 0.011706,-0.544236c-0.060432,-0.001552 -0.041886,-0.048867 0.045623,-0.116703c0.138774,-0.107185 0.130806,-0.130878 -0.134895,-0.402078c-0.512153,-0.522661 -0.766361,-1.035941 -0.943426,-1.904478c-0.050418,-0.246733 -0.033635,-0.336005 0.083209,-0.443964c0.080387,-0.074183 0.178757,-0.114446 0.218597,-0.089343c0.039701,0.025103 0.35159,0.523788 0.692814,1.108147c0.678569,1.16174 1.103776,1.613109 1.592446,1.690323l0.296164,0.046822l-0.244053,0.060008c-0.615951,0.151538 -0.641688,0.170013 -0.710935,0.509968c-0.077567,0.381135 0.1478,1.61769 0.295671,1.621992c0.152455,0.004512 -0.216341,0.246381 -0.375564,0.246381c-0.082292,0 -0.171564,-0.058176 -0.198289,-0.129255l0,0l0,0zm19.544091,-0.410258c0.02877,-0.137013 0.088284,-0.286504 0.132216,-0.332128c0.052673,-0.054507 0.059654,-0.011775 0.020377,0.124531c-0.096324,0.335159 -0.212532,0.493254 -0.152593,0.207597zm-27.787117,-0.373661c0,-0.045623 0.016148,-0.082997 0.035892,-0.082997c0.019744,0 0.058457,0.037373 0.08617,0.082997c0.027642,0.045695 0.011423,0.082997 -0.035963,0.082997c-0.047386,0 -0.086099,-0.037303 -0.086099,-0.082997zm-3.317829,-2.12526c-0.057689,-0.063957 -0.068992,-0.11621 -0.025103,-0.11621c0.084456,0 0.206737,0.157956 0.158441,0.204707c-0.015633,0.015231 -0.075649,-0.024681 -0.133337,-0.088497l0,0zm17.22126,-14.904113c-0.053946,-0.102952 -0.18207,-0.279592 -0.284811,-0.392559c-0.10267,-0.113035 -0.210066,-0.300535 -0.238624,-0.416674c-0.028559,-0.116139 -0.149987,-0.362026 -0.269791,-0.546353c-0.119736,-0.184397 -0.269016,-0.484652 -0.331633,-0.667286c-0.062689,-0.182705 -0.196315,-0.465471 -0.29694,-0.628573c-0.17643,-0.28601 -0.177629,-0.299972 -0.031661,-0.392982c0.083279,-0.053028 0.207173,-0.074676 0.275291,-0.04788c0.100625,0.039348 0.123826,-0.02736 0.123048,-0.354198c-0.000422,-0.221559 0.016149,-0.581963 0.03688,-0.800983c0.032718,-0.343551 0.078835,-0.545824 0.255265,-1.117886c0.023975,-0.077475 0.078555,-0.066665 0.20943,0.041477c0.479363,0.396254 0.497274,0.431497 0.445797,0.881293c-0.026936,0.234957 -0.054014,0.694999 -0.060289,1.02219c-0.008886,0.464555 -0.03561,0.585347 -0.122063,0.55143c-0.076085,-0.029757 -0.110849,0.02461 -0.110849,0.173045c0,0.11903 0.036667,0.216483 0.081374,0.216483c0.044778,0 0.081306,0.033988 0.081306,0.075663c0,0.041532 0.128126,0.354762 0.28474,0.695985c0.156545,0.341224 0.28467,0.657626 0.28467,0.702896c0,0.045412 0.079471,0.136306 0.17657,0.202168c0.125941,0.085394 0.155134,0.153651 0.101684,0.238412c-0.041182,0.065297 -0.074959,0.249554 -0.074959,0.409271c0,0.253573 -0.027782,0.293837 -0.218174,0.316332c-0.158799,0.018757 -0.244899,-0.025245 -0.31626,-0.161269zm-4.386616,-0.102529c-0.28044,-0.125517 -0.344679,-0.199417 -0.587744,-0.675114c-0.234394,-0.458842 -0.509333,-1.367855 -0.593599,-1.962582c-0.039417,-0.278464 -0.103093,-0.409129 -0.229668,-0.471747c-0.158024,-0.07806 -0.147378,-0.087086 0.109581,-0.093362c0.395872,-0.00952 0.483594,-0.08899 0.519556,-0.470619c0.047174,-0.499248 0.445586,-1.230739 0.805849,-1.479199c0.475273,-0.32784 0.578226,-0.292265 0.515044,0.178383c-0.028911,0.215128 -0.119382,0.523386 -0.201039,0.684866c-0.081657,0.16148 -0.19991,0.532884 -0.262811,0.825452c-0.080457,0.374295 -0.156755,0.543179 -0.25745,0.570046c-0.178898,0.047739 -0.178898,0.04647 0.02877,0.689992c0.348205,1.078885 0.529147,2.033026 0.417732,2.202404c-0.044424,0.067484 -0.115785,0.067906 -0.26422,0.001481l0,0zm-0.926924,-2.271439c-0.027007,-0.027571 -0.046258,0.021437 -0.042662,0.108946c0.003879,0.096676 0.023129,0.116421 0.049079,0.050138c0.023552,-0.059939 0.020661,-0.131512 -0.006417,-0.159084zm0.488036,-1.992409c-0.027007,-0.027571 -0.046259,0.021437 -0.042732,0.108946c0.003949,0.096676 0.0232,0.116421 0.049149,0.050136c0.023552,-0.059938 0.02059,-0.131511 -0.006417,-0.159083l0,0zm0.357513,0.102036c0,-0.06847 -0.014386,-0.124459 -0.031874,-0.124459c-0.017629,0 -0.053028,0.055989 -0.078836,0.124459c-0.025738,0.068541 -0.011352,0.12453 0.032014,0.12453c0.043296,0 0.078696,-0.055989 0.078696,-0.12453zm6.832579,3.967896c-0.194128,-0.148857 -0.384942,-0.436137 -0.600297,-0.904077c-0.173678,-0.377117 -0.457362,-0.860639 -0.630407,-1.074372c-0.173042,-0.213802 -0.314708,-0.422034 -0.314708,-0.46265c0,-0.040758 -0.064029,-0.076932 -0.1423,-0.080528c-0.092939,-0.004301 -0.067626,-0.034552 0.072983,-0.087086c0.178968,-0.06699 0.215777,-0.132428 0.218103,-0.387834c0.001551,-0.168884 0.010084,-0.626881 0.018898,-1.017606c0.008673,-0.390725 -0.006275,-0.78296 -0.033353,-0.871654c-0.064664,-0.211715 0.079612,-0.457849 0.177627,-0.303068c0.037373,0.059014 0.174668,0.136158 0.305051,0.171402c0.40236,0.108805 0.472733,0.385613 0.364987,1.435649c-0.051196,0.498825 -0.072844,0.940321 -0.048163,0.981079c0.024752,0.040828 0.004231,0.09985 -0.045552,0.131229c-0.057046,0.036034 0.04238,0.198994 0.26958,0.441637c0.506583,0.541063 0.875658,1.049267 0.875658,1.205812c0,0.073336 0.036599,0.133273 0.081306,0.133273c0.107535,0 0.103516,0.32557 -0.007969,0.651774c-0.107748,0.315485 -0.191027,0.320984 -0.561443,0.03702zm-4.590546,0.022917c-0.176147,-0.055566 -0.359062,-0.168885 -0.40673,-0.25174c-0.047529,-0.082997 -0.168815,-0.244477 -0.26944,-0.358924c-0.100695,-0.114587 -0.182987,-0.270002 -0.182987,-0.345594c0,-0.075452 -0.032084,-0.172764 -0.071291,-0.21613c-0.039276,-0.043367 -0.153582,-0.340378 -0.254138,-0.659953c-0.100483,-0.319645 -0.214859,-0.616656 -0.253995,-0.660024c-0.123824,-0.13694 -0.077426,-0.294683 0.086593,-0.294683c0.211193,0 0.2504,-0.08349 0.260201,-0.554955c0.012057,-0.578155 0.205693,-1.151374 0.442414,-1.309702c0.194409,-0.129924 0.716717,-0.110723 0.801616,0.029426c0.018405,0.030505 -0.057117,0.40913 -0.167896,0.84153c-0.110781,0.432329 -0.186231,0.870159 -0.167685,0.9729c0.028488,0.158448 -0.001904,0.186795 -0.200687,0.186795c-0.214508,0 -0.22967,0.019251 -0.179885,0.228329c0.029827,0.125517 0.103727,0.302016 0.16416,0.391994c0.060432,0.090119 0.109933,0.209854 0.109933,0.266196c0,0.05627 0.110428,0.293626 0.245463,0.527242c0.134966,0.233688 0.25576,0.487473 0.268311,0.564053c0.012552,0.076508 0.06685,0.220712 0.120653,0.320492c0.109298,0.202944 0.129888,0.445868 0.036597,0.432611c-0.033495,-0.004866 -0.205058,-0.054226 -0.381206,-0.109862zm6.686824,-0.173891c-0.265067,-0.251527 -0.82376,-1.137623 -0.978257,-1.551406c-0.029054,-0.07806 -0.210208,-0.258156 -0.402431,-0.400244c-0.192226,-0.14216 -0.378738,-0.311749 -0.414559,-0.376975c-0.035753,-0.065156 -0.145544,-0.121357 -0.243984,-0.124883c-0.114517,-0.00416 -0.061983,-0.04238 0.145896,-0.106267l0.324865,-0.09992l-0.027291,-0.620112c-0.0153,-0.599168 -0.099003,-0.819106 -0.191871,-1.076726c-0.090612,-0.251119 -0.182919,-0.559348 -0.2052,-0.684859c-0.03427,-0.192937 -0.012482,-0.22835 0.140114,-0.22835c0.125306,0 0.166628,0.037324 0.134824,0.12178c-0.035468,0.094349 0.003878,0.111555 0.174668,0.076721c0.336711,-0.068738 0.549313,0.225021 0.697819,0.96436c0.093431,0.465048 0.106829,0.756206 0.052533,1.147989l-0.072701,0.524845l0.575545,0.553828c0.77179,0.742666 1.067038,1.490975 0.793863,2.012083c-0.112261,0.213943 -0.149845,0.204141 -0.503833,-0.131864zm-11.34873,-0.011916c-0.033495,-0.083772 -0.160846,-0.30244 -0.283049,-0.485991c-0.373096,-0.560596 -0.684845,-1.620794 -0.740411,-2.51796c-0.017065,-0.275644 -0.014385,-0.27783 0.286432,-0.23672c0.338404,0.046399 0.430638,-0.02468 0.51723,-0.398693c0.066003,-0.285023 0.497626,-1.174157 0.674902,-1.39011c0.065579,-0.079887 0.198148,-0.145304 0.294683,-0.145304c0.096395,0 0.253502,-0.074316 0.349122,-0.165168c0.10133,-0.096345 0.194409,-0.130919 0.223392,-0.083046c0.02743,0.045221 0.010718,0.082214 -0.037021,0.082214c-0.058245,0 -0.055072,0.051956 0.00952,0.157517c0.081374,0.132999 0.044494,0.246049 -0.237426,0.726427c-0.436772,0.744416 -0.659811,1.427145 -0.499953,1.53052c0.076226,0.04929 -0.00268,0.0739 -0.239188,0.074746l-0.35286,0.001269l0.05197,0.352788c0.028489,0.194129 0.043227,0.64458 0.134262,1.102648c0.118466,0.596348 0.228258,0.99624 0.176993,1.198266c-0.082432,0.324301 -0.239823,0.41851 -0.328601,0.196597zm13.621368,-0.438605c-0.166346,-0.149 -0.362943,-0.401091 -0.436843,-0.560104c-0.287138,-0.617572 -1.44112,-1.759144 -1.794402,-1.775081c-0.094137,-0.004372 -0.066495,-0.035751 0.078976,-0.089978c0.228964,-0.085324 0.284177,-0.223604 0.145615,-0.364987c-0.042874,-0.04379 -0.099427,-0.322114 -0.125588,-0.61856c-0.031027,-0.349756 -0.129534,-0.705449 -0.281073,-1.013834c-0.132991,-0.270821 -0.21486,-0.547128 -0.190392,-0.642557c0.039207,-0.152948 0.061419,-0.157517 0.257311,-0.053112c0.117902,0.062836 0.309703,0.152616 0.426264,0.19941c0.343833,0.138069 0.712628,0.899162 0.789137,1.628417c0.03561,0.339108 0.037444,0.691896 0.00416,0.783919c-0.049713,0.137082 0.001058,0.204847 0.280441,0.374225c0.954001,0.578437 1.504019,1.514739 1.255313,2.136754l-0.106479,0.266477l-0.30244,-0.27099zm-15.675126,-0.096889c0,-0.051899 -0.071785,-0.073617 -0.162679,-0.049289c-0.105773,0.028206 -0.162678,0.002539 -0.162678,-0.073337c0,-0.064239 -0.027995,-0.116773 -0.062195,-0.116773c-0.108664,0 -0.336217,-0.634002 -0.422597,-1.177253c-0.094843,-0.596418 -0.107747,-1.174432 -0.034694,-1.547458c0.043366,-0.220924 0.08892,-0.258298 0.341224,-0.280157c0.266618,-0.023129 0.305331,-0.060855 0.458349,-0.447913c0.234039,-0.591666 0.544589,-0.975368 1.102012,-1.361735c0.446574,-0.30947 0.876082,-0.481951 0.524563,-0.210636c-0.088918,0.068661 -0.11353,0.123028 -0.05627,0.124523c0.167192,0.004323 0.118042,0.133246 -0.195891,0.513626c-0.29814,0.361257 -0.841107,1.4444 -0.841107,1.677806c0,0.068259 -0.081023,0.136024 -0.180026,0.150691c-0.262388,0.038642 -0.318729,0.418367 -0.259356,1.749133c0.028066,0.627798 0.02856,1.14143 0.001129,1.14143c-0.02736,0 -0.049783,-0.041746 -0.049783,-0.092658zm-0.271272,-1.437172c-0.11628,-0.251599 -0.160352,-0.219021 -0.090119,0.066637c0.029404,0.119241 0.082573,0.19836 0.118324,0.175866c0.035751,-0.022637 0.023129,-0.131723 -0.028205,-0.242503zm-1.982326,0.843998c-0.306178,-0.598182 -0.416887,-0.907251 -0.500236,-1.396345c-0.130594,-0.76636 -0.115927,-1.232889 0.04936,-1.570587c0.125447,-0.256168 0.179039,-0.290495 0.453837,-0.290495c0.303145,0 0.316896,-0.013137 0.503338,-0.478714c0.10542,-0.263339 0.276279,-0.588274 0.379724,-0.722105c0.197655,-0.255604 0.808388,-0.555689 0.949771,-0.466494c0.045483,0.028679 0.157672,-0.030011 0.249342,-0.130425c0.324018,-0.355023 0.254207,-0.082122 -0.091246,0.35661c-0.599733,0.761586 -0.763963,1.013199 -0.925302,1.416772c-0.120864,0.30244 -0.202379,0.396366 -0.360051,0.415124c-0.31196,0.037232 -0.472806,0.631747 -0.482112,1.782697c-0.00409,0.510531 -0.035329,1.005124 -0.069388,1.099051c-0.061278,0.169166 -0.062759,0.169025 -0.157037,-0.01509zm-0.186655,-1.463687c0,-0.040828 -0.060079,-0.097664 -0.133485,-0.126434c-0.111696,-0.043719 -0.116703,-0.031591 -0.030745,0.074182c0.117127,0.143992 0.164231,0.159012 0.164231,0.052252zm19.90809,1.486957c-0.114305,-0.091811 -0.319998,-0.369853 -0.457292,-0.617997c-0.367313,-0.664325 -0.695844,-1.007099 -1.222593,-1.275763l-0.469774,-0.239681l0.149281,-0.188064c0.122203,-0.154076 0.139903,-0.273106 0.097523,-0.656709c-0.05888,-0.532658 -0.297009,-1.004385 -0.716647,-1.419508c-0.317037,-0.313546 -0.349966,-0.429339 -0.166415,-0.584868c0.099919,-0.084618 0.121921,-0.07897 0.121921,0.031422c0,0.074069 0.038854,0.134663 0.08624,0.134663c0.047386,0 0.066425,0.0325 0.04231,0.07232c-0.024117,0.039813 0.105278,0.068322 0.28763,0.063421c0.274305,-0.007312 0.370558,0.035906 0.558482,0.250534c0.311395,0.355693 0.570821,1.105475 0.586688,1.695717c0.008885,0.329377 0.046751,0.491562 0.114445,0.491562c0.09428,0 0.232842,0.116773 0.901539,0.760014c0.142371,0.136941 0.281214,0.294894 0.417802,0.576744c0.136589,0.28185 0.145685,0.373168 0.064946,0.652126c-0.124601,0.430919 -0.15302,0.449112 -0.396085,0.254067zm1.550278,-0.644934c-0.0672,-0.079965 -0.20534,-0.325076 -0.307093,-0.544871c-0.172129,-0.371828 -0.418369,-0.616093 -1.375684,-1.364542c-0.131441,-0.10267 -0.305401,-0.186795 -0.386495,-0.186795c-0.128479,0 -0.124106,-0.016712 0.033002,-0.128972c0.169519,-0.121286 0.173114,-0.14364 0.05874,-0.369521c-0.06699,-0.132167 -0.121781,-0.330089 -0.121781,-0.439726c0,-0.291355 -0.312946,-0.718445 -0.796187,-1.086521c-0.385508,-0.293682 -0.566238,-0.631747 -0.337769,-0.631747c0.047315,0 0.069106,0.028016 0.048373,0.062258c-0.020731,0.034249 0.04118,0.06725 0.137575,0.073315c0.698596,0.044143 1.099264,0.305155 1.512272,0.985113c0.16437,0.270736 0.369499,1.15509 0.296023,1.276447c-0.025034,0.041322 0.088215,0.139902 0.25174,0.219091c0.293273,0.142018 0.676523,0.453413 1.086499,0.882569c0.255618,0.267747 0.44488,1.000541 0.319998,1.238883c-0.104503,0.199276 -0.259778,0.204847 -0.419213,0.01502zm-23.02832,-0.417592c-0.462933,-0.522095 -0.503197,-1.827263 -0.074746,-2.418837c0.150127,-0.20723 0.152666,-0.233744 0.029898,-0.318362c-0.099638,-0.068661 -0.051758,-0.070325 0.186513,-0.00665c0.366045,0.097748 0.474638,0.009555 0.61172,-0.497253c0.177628,-0.656519 0.765796,-1.204056 1.30827,-1.21794c0.181295,-0.004654 0.382898,-0.072899 0.479857,-0.162425c0.091953,-0.084957 0.167192,-0.116125 0.167192,-0.069331c0,0.046886 -0.283613,0.379549 -0.630337,0.739311c-0.467798,0.485364 -0.672363,0.769322 -0.793086,1.100821c-0.125376,0.34422 -0.215706,0.465746 -0.393757,0.529584c-0.160422,0.057519 -0.277407,0.193 -0.382263,0.442907c-0.182846,0.43522 -0.334877,1.245935 -0.308504,1.645192c0.023905,0.362026 -0.030392,0.424996 -0.200757,0.232983zm24.36374,-0.229386c-0.101684,-0.073195 -0.28869,-0.363788 -0.415547,-0.64585c-0.24363,-0.541698 -0.440086,-0.763258 -0.904428,-1.019651c-0.156544,-0.086452 -0.371335,-0.222123 -0.477177,-0.301425c-0.105915,-0.079302 -0.23404,-0.118783 -0.284742,-0.087862c-0.053521,0.032754 -0.048796,0.001742 0.011425,-0.074147c0.073123,-0.092107 0.087227,-0.273811 0.048302,-0.617784c-0.052251,-0.461255 -0.082786,-0.515037 -0.570046,-1.004307c-0.283189,-0.284282 -0.59938,-0.538645 -0.702685,-0.565081c-0.261258,-0.066912 -0.394955,-0.300162 -0.250752,-0.437646c0.0916,-0.087284 0.110921,-0.070078 0.110921,0.099166c0,0.197499 0.015092,0.203239 0.428592,0.159682c0.395028,-0.041646 0.457293,-0.022939 0.792594,0.238151c0.200263,0.155775 0.442412,0.425926 0.538243,0.600325c0.163878,0.298336 0.317459,1.005555 0.282907,1.303976c-0.010366,0.089935 0.167121,0.227426 0.535917,0.415116c0.303286,0.154358 0.59952,0.33664 0.658331,0.405181c0.215141,0.250259 0.581187,1.110122 0.510248,1.198407c-0.039064,0.048515 -0.083631,0.173468 -0.099074,0.277549c-0.026796,0.179743 -0.037302,0.182634 -0.213026,0.056129l0,0.000071zm-25.987566,-0.593457c-0.220367,-0.528583 -0.24198,-0.685761 -0.182959,-1.328226c0.047548,-0.518386 0.095012,-0.662773 0.293266,-0.893281c0.130087,-0.151199 0.236572,-0.335406 0.236572,-0.409306c0,-0.097586 0.076142,-0.134325 0.27838,-0.134325c0.202239,0 0.289677,-0.034912 0.367103,-0.274312c0.210418,-0.650948 1.016407,-1.167155 1.591953,-1.019686c0.207315,0.053112 0.201674,0.062258 -0.219232,0.352943c-0.625682,0.432167 -0.833068,0.650863 -1.051313,1.10855c-0.106831,0.223935 -0.24906,0.408721 -0.316191,0.410716c-0.194481,0.005486 -0.482628,0.717867 -0.620281,1.533672c-0.163751,0.969797 -0.211137,1.051806 -0.377299,0.653254zm0.346879,-0.985169c0,-0.020167 -0.036576,-0.036597 -0.081382,-0.036597c-0.044721,0 -0.081297,0.039559 -0.081297,0.087933c0,0.048303 0.036576,0.064874 0.081297,0.036597c0.044805,-0.028206 0.081382,-0.067765 0.081382,-0.087933zm1.464165,-2.448954c0,-0.048381 -0.036668,-0.064839 -0.081375,-0.036661c-0.044707,0.028263 -0.081304,0.067829 -0.081304,0.087947c0,0.020118 0.036597,0.036576 0.081304,0.036576c0.044707,0 0.081375,-0.039566 0.081375,-0.087862zm25.263374,3.15319c-0.115786,-0.140537 -0.210558,-0.323313 -0.210558,-0.406168c0,-0.286786 -0.696128,-0.964917 -1.198267,-1.167494c-0.258087,-0.104074 -0.501152,-0.217871 -0.540148,-0.252861c-0.038994,-0.034997 -0.130522,-0.040814 -0.203295,-0.012968c-0.115362,0.043973 -0.117973,0.032254 -0.019955,-0.090605c0.096253,-0.120779 0.092515,-0.205905 -0.026161,-0.590932c-0.169168,-0.54887 -0.355962,-0.762334 -1.093269,-1.249115c-0.314216,-0.207477 -0.595574,-0.417197 -0.625119,-0.466078c-0.089343,-0.147462 0.089413,-0.26226 0.198924,-0.127682c0.065579,0.080719 0.195679,0.10657 0.399188,0.079471c0.238624,-0.031838 0.372321,0.008977 0.638234,0.195095c0.510108,0.356934 0.76502,0.723099 0.961616,1.381028l0.178686,0.597666l0.490999,0.249123c0.922199,0.467657 1.270121,0.895671 1.373215,1.688827c0.065226,0.501505 -0.016855,0.545224 -0.324089,0.172692zm-28.470578,-0.698525c-0.285114,-0.613293 0.014385,-1.6595 0.602074,-2.102964c0.135411,-0.102163 0.246211,-0.244639 0.246211,-0.316705c0,-0.077144 0.046054,-0.112881 0.11214,-0.08703c0.137568,0.053944 0.294592,-0.094596 0.294592,-0.278557c0,-0.186781 0.659755,-0.884939 0.946146,-1.001148c0.316896,-0.128676 0.596489,-0.163588 0.863671,-0.10798c0.29553,0.061433 0.282484,0.154527 -0.040687,0.290107c-0.66369,0.27855 -1.151268,0.728416 -1.407626,1.298821c-0.111217,0.24729 -0.20814,0.352111 -0.32626,0.352774c-0.161847,0.000917 -0.6039,0.43649 -0.775964,0.764583c-0.045722,0.087284 -0.147053,0.461586 -0.225106,0.831827l-0.141891,0.673026l-0.147299,-0.316755zm29.276781,0.06015c-0.044778,-0.033495 -0.145685,-0.202943 -0.22438,-0.376552c-0.254701,-0.561894 -0.767489,-1.089983 -1.192907,-1.228553c-0.160001,-0.052118 -0.325641,-0.12759 -0.368161,-0.167742c-0.042452,-0.040151 -0.147024,-0.072983 -0.23242,-0.072983c-0.103727,0 -0.13969,-0.040814 -0.108805,-0.12319c0.025527,-0.067751 -0.005712,-0.226516 -0.069386,-0.352781c-0.063606,-0.126349 -0.134827,-0.327015 -0.158167,-0.445967c-0.059796,-0.3039 -0.498049,-0.754351 -1.002517,-1.030158c-0.528652,-0.289021 -0.652054,-0.423853 -0.514972,-0.56267c0.077496,-0.078469 0.088566,-0.072236 0.050982,0.028679c-0.039135,0.104899 0.005289,0.122527 0.238977,0.094681c0.426477,-0.050792 0.626527,0.026761 1.050043,0.407226c0.368796,0.331415 0.665807,0.801731 0.781027,1.237057l0.054862,0.207562l0.103869,-0.197337c0.078273,-0.148548 0.081727,-0.246881 0.014175,-0.398249c-0.049362,-0.110469 -0.089696,-0.293344 -0.089696,-0.406394c0,-0.304492 -0.55418,-0.867324 -1.17944,-1.197991c-0.297996,-0.157524 -0.55559,-0.309308 -0.572584,-0.337317c-0.016923,-0.027931 0.120088,-0.056864 0.304485,-0.064176c0.678851,-0.027177 1.45727,0.675304 1.77903,1.605386c0.115786,0.334743 0.243489,0.553855 0.352084,0.604478c0.093785,0.043642 0.365622,0.166748 0.604175,0.273564c0.255971,0.11463 0.524491,0.31471 0.655298,0.488191c0.241657,0.320443 0.524845,0.999568 0.416886,0.999568c-0.036949,0 -0.046609,0.08055 -0.021296,0.179052c0.082293,0.321359 -0.122272,0.088447 -0.330999,-0.376806c-0.231994,-0.517279 -0.579918,-0.827257 -1.232113,-1.098071c-0.358499,-0.148879 -0.505382,-0.174145 -0.626811,-0.107811c-0.242573,0.132498 -0.143286,0.258763 0.427182,0.543884c0.628079,0.313956 1.086077,0.782445 1.205881,1.233313c0.151257,0.569898 0.108665,0.809297 -0.114304,0.642105l0,0zm-30.294471,-0.723318c-0.248214,-0.637486 -0.013384,-1.601311 0.53158,-2.181764c0.401994,-0.428176 0.405646,-0.434995 0.236572,-0.434995c-0.354191,0 -1.342379,1.417442 -1.342379,1.925413c0,0.087862 -0.036576,0.136652 -0.081375,0.108481c-0.119869,-0.075649 -0.099003,-0.530755 0.047957,-1.04338c0.15952,-0.556605 0.507231,-0.948783 1.070479,-1.207469c0.234908,-0.107811 0.427097,-0.238236 0.427097,-0.289769c0,-0.19568 0.598908,-0.915289 0.922763,-1.108634c0.382623,-0.228512 0.774554,-0.321275 0.933072,-0.220776c0.074647,0.047295 -0.024857,0.133746 -0.32784,0.28503c-0.462425,0.230923 -1.121355,0.760592 -1.121355,0.901319c0,0.04647 -0.077137,0.195179 -0.171564,0.330421c-0.181464,0.260096 -0.164089,0.336323 0.085535,0.375226c0.107063,0.016705 0.215452,-0.082707 0.357019,-0.327261c0.41047,-0.709384 0.984774,-1.090681 1.569071,-1.0418l0.315415,0.026436l-0.449761,0.22543c-0.247459,0.124022 -0.600156,0.356772 -0.783778,0.517201c-0.347379,0.303484 -0.707974,0.925422 -0.620358,1.070063c0.030752,0.0507 -0.005902,0.061264 -0.093517,0.02693c-0.104736,-0.040983 -0.231918,0.040151 -0.465746,0.29725c-0.399328,0.438987 -0.535987,0.695422 -0.763413,1.432821l-0.179222,0.581124l-0.096253,-0.247297l0,0zm31.121403,-1.018692c-0.062053,-0.125602 -0.135601,-0.325682 -0.163454,-0.444796c-0.08885,-0.379133 -0.704025,-0.875215 -1.221326,-0.984774c-0.251105,-0.053288 -0.495158,-0.072405 -0.542404,-0.042648c-0.056412,0.035582 -0.067413,-0.020449 -0.032155,-0.163751c0.034765,-0.141228 0.011143,-0.267831 -0.067201,-0.359769c-0.066353,-0.078131 -0.145262,-0.247459 -0.175372,-0.376382c-0.069951,-0.300162 -0.646553,-0.872895 -1.139032,-1.131404c-0.499814,-0.262345 -0.532743,-0.335998 -0.15027,-0.335998c0.376552,0 0.966342,0.353698 1.237263,0.742054c0.230232,0.330089 0.330293,0.256274 0.137999,-0.101993c-0.178406,-0.332409 -0.722431,-0.752441 -1.151164,-0.888761c-0.350532,-0.111393 -0.505524,-0.217794 -0.429861,-0.295015c0.090823,-0.092763 0.692036,0.130009 1.034882,0.38354c0.190039,0.140481 0.362097,0.238398 0.382476,0.217617c0.072702,-0.074231 -0.665171,-0.647873 -1.147283,-0.891758c-0.449817,-0.22768 -0.467164,-0.245964 -0.206329,-0.217871c0.156615,0.016874 0.354762,0.061433 0.440369,0.098919c0.121779,0.053366 0.1411,0.042563 0.088637,-0.049622c-0.039699,-0.069909 -0.03688,-0.089695 0.006981,-0.048627c0.040758,0.037987 0.07404,0.099166 0.07404,0.135904c0,0.036738 0.191732,0.259264 0.425984,0.494672c0.234251,0.235331 0.417238,0.465831 0.406732,0.512301c-0.010577,0.046385 0.122556,0.135411 0.295952,0.197838c0.173327,0.062427 0.356386,0.155938 0.406662,0.207893c0.0684,0.070572 0.033566,0.072151 -0.137506,0.006234c-0.125868,-0.048543 -0.28594,-0.088278 -0.355609,-0.088278c-0.228116,0 0.037586,0.227095 0.331633,0.283373c0.148507,0.028425 0.396649,0.172396 0.551502,0.320027c0.15485,0.147546 0.223816,0.223773 0.153017,0.169321c-0.132567,-0.102071 -0.831163,-0.288443 -0.882922,-0.23557c-0.060078,0.061348 0.156757,0.376051 0.259074,0.376051c0.342,0 1.031216,0.526763 1.249039,0.954692c0.104221,0.204727 0.063181,0.179877 -0.230868,-0.139656c-0.269791,-0.293097 -0.462862,-0.418529 -0.784836,-0.509804l-0.426969,-0.121025l0,0.201081c0,0.110554 0.045695,0.214458 0.101613,0.230832c0.94991,0.277971 1.556977,0.772396 1.642089,1.337478c0.02722,0.181126 0.08208,0.432075 0.121921,0.557677c0.039841,0.125517 0.058176,0.228258 0.040829,0.228258c-0.017276,0 -0.082222,-0.102741 -0.144133,-0.228258l-0.000001,0zm-1.911388,-2.696554c-0.06036,-0.061602 -0.070866,-0.029179 -0.03554,0.10889c0.028843,0.112303 0.06565,0.149873 0.085889,0.087784c0.019673,-0.059938 -0.003032,-0.148378 -0.050349,-0.196674zm-30.345579,2.367551c-0.01239,-0.410639 0.299824,-1.160498 0.629829,-1.512786c0.177388,-0.189355 0.467248,-0.378709 0.717698,-0.469068c0.327931,-0.11812 0.430002,-0.197838 0.464583,-0.362674c0.126935,-0.604647 0.710717,-1.14122 1.318855,-1.212123l0.399328,-0.046547l-0.50972,0.274643c-0.607468,0.327346 -0.995084,0.682701 -0.995084,0.912207c0,0.287942 -0.260589,0.655017 -0.426759,0.601157c-0.084372,-0.027346 -0.297504,0.041809 -0.49733,0.161346c-0.368245,0.220283 -0.762672,0.848701 -0.985028,1.569388c-0.106817,0.346216 -0.108481,0.347379 -0.116371,0.084456zm-0.125856,-0.729502c0.160429,-0.836981 0.527927,-1.326668 1.280783,-1.706795c0.232665,-0.117373 0.434826,-0.276392 0.449373,-0.353282c0.014547,-0.07689 -0.004908,-0.139811 -0.043226,-0.139811c-0.183121,0 -1.144372,0.741468 -1.318354,1.016859c-0.108142,0.171239 -0.213795,0.293767 -0.234745,0.272401c-0.020943,-0.021366 0.021782,-0.132089 0.094928,-0.246049c0.073237,-0.113967 0.134663,-0.255279 0.136743,-0.313962c0.001996,-0.058605 0.167826,-0.293428 0.368492,-0.521771c0.274805,-0.312467 0.381869,-0.387199 0.433577,-0.302405c0.043303,0.071065 0.087615,0.081297 0.120031,0.027846c0.028178,-0.046639 0.005317,-0.100752 -0.05087,-0.120285c-0.056194,-0.019533 0.053366,-0.116872 0.243553,-0.216376c0.294423,-0.153942 0.345631,-0.161339 0.345631,-0.049706c0,0.072151 -0.034002,0.109644 -0.075642,0.083377c-0.041731,-0.026267 -0.098757,-0.009809 -0.12685,0.036654c-0.122358,0.202076 0.270074,0.061179 0.424932,-0.152616c0.251366,-0.347041 0.901404,-0.759422 1.194663,-0.757927c0.229175,0.001164 0.205566,0.026768 -0.278303,0.302073c-0.687602,0.391268 -0.929497,0.627424 -1.094665,1.068814c-0.107148,0.2862 -0.207978,0.397086 -0.486358,0.534654c-0.499996,0.24705 -0.891758,0.667491 -1.18087,1.2674c-0.161339,0.334828 -0.233575,0.43125 -0.202823,0.270906zm7.60114,-0.373562c0.159293,-0.105068 0.2669,-0.105068 0.203365,0c-0.027712,0.045637 -0.112189,0.082461 -0.187923,0.081713c-0.118536,-0.001086 -0.120581,-0.01239 -0.015442,-0.081713zm-5.533251,-2.78101c0.456685,-0.659177 1.089926,-1.130412 1.496489,-1.113621c0.145135,0.005985 0.137907,0.017955 -0.045052,0.074315c-0.119947,0.036907 -0.301911,0.127096 -0.404398,0.200412l-0.186449,0.133249l0.282456,0.005486l0.282456,0.005571l-0.327008,0.104652c-0.349128,0.11164 -0.687277,0.306812 -1.012628,0.584445c-0.193431,0.165175 -0.196667,0.165337 -0.085866,0.005493zm26.763079,-0.871728c-0.156615,-0.087447 -0.255407,-0.160597 -0.219657,-0.162507c0.086171,-0.004655 0.545013,0.238816 0.545013,0.289185c0,0.054367 -0.004794,0.052456 -0.325356,-0.126678l0,0z" fill="#ff0000" id="path3628"/>
   <path stroke="null" d="m31.81278,42.52706c-0.00568,-0.02235 -0.01065,-0.044 -0.01633,-0.06671c-0.05077,-0.20225 -0.10686,-0.41054 -0.17006,-0.627c-0.52722,-1.89767 -3.03444,-5.67174 -4.94947,-5.67174c-0.29432,0 -0.56875,0.08765 -0.83893,0.26755c-1.67681,1.11774 -1.33846,3.13961 -0.63018,6.09649c0.17503,0.73132 0.3561,1.48783 0.46473,2.19396c0.14166,0.91868 0.10722,1.94523 0.07421,2.93736c-0.05113,1.54071 -0.10403,3.13429 0.56059,3.8209c0.29077,0.30055 0.74378,0.44674 1.38532,0.44674c0.18568,0 0.36036,-0.01384 0.52935,-0.03513c0.05148,-0.00638 0.10012,-0.01596 0.14982,-0.02413c0.11787,-0.01916 0.23184,-0.04258 0.34154,-0.07096c0.04864,-0.01278 0.09728,-0.02591 0.1445,-0.04045c0.11432,-0.03478 0.22367,-0.07488 0.32876,-0.11923c0.03088,-0.01277 0.06355,-0.02413 0.09373,-0.03761c0.13491,-0.06139 0.26343,-0.12916 0.38414,-0.20368c0.01171,-0.00745 0.02236,-0.01597 0.03408,-0.02342c0.10686,-0.06813 0.20769,-0.14052 0.3032,-0.21681c0.02804,-0.02235 0.05467,-0.04542 0.08201,-0.06848c0.07846,-0.06636 0.15337,-0.13519 0.22438,-0.20581c0.02378,-0.02377 0.04828,-0.04755 0.07136,-0.07167c0.07952,-0.08375 0.15479,-0.16962 0.22509,-0.25691c0.00816,-0.01029 0.01739,-0.01987 0.0252,-0.03016c0.07846,-0.09935 0.15054,-0.20048 0.21764,-0.30197c0.01597,-0.02377 0.02982,-0.0479 0.04473,-0.07132c0.04757,-0.07522 0.09302,-0.15045 0.13491,-0.22497c0.02024,-0.03584 0.03941,-0.07096 0.05823,-0.10645c0.03266,-0.06174 0.06355,-0.12277 0.09266,-0.18345c0.0181,-0.03797 0.03728,-0.07629 0.05432,-0.1139c0.02414,-0.05287 0.04509,-0.10362 0.06639,-0.15471c0.04473,-0.10681 0.08485,-0.21007 0.11822,-0.30516c0.00213,-0.00533 0.00426,-0.011 0.00604,-0.01597c0.02343,-0.06813 0.04473,-0.13271 0.06319,-0.19268c0.0806,-0.26223 0.11716,-0.44603 0.12249,-0.4769c0.00532,-0.03052 0.01278,-0.06245 0.02237,-0.09155c0.53219,-1.68371 0.74591,-3.09987 0.31242,-5.18455c-0.03834,-0.18452 -0.08236,-0.37471 -0.13065,-0.56952" id="sole-left" fill="#FFD200"/>
   <path stroke="null" d="m11.30698,49.01032l0,0c-0.27337,0 -0.5755,-0.03903 -0.89822,-0.11638c-3.60178,-0.86439 -8.53136,-6.26965 -9.1548,-9.28081c-0.27869,-1.34661 -0.02272,-2.59139 0.72071,-3.50403c0.65716,-0.8062 1.65054,-1.26855 2.72557,-1.26855c0.96781,0 1.95124,0.363 2.84414,1.04961c1.75349,1.34803 4.72793,7.25787 5.36982,8.72407c0.26698,0.60996 0.79704,2.44093 0.05432,3.57642c-0.24461,0.374 -0.73172,0.81967 -1.66154,0.81967l0,0l0,0l0,0zm-6.60674,-13.10526c-0.76438,0 -1.43929,0.3112 -1.89906,0.87575c-0.53787,0.66035 -0.7168,1.58932 -0.50414,2.61658c0.54249,2.62084 5.20332,7.7039 8.36024,8.46113c0.24106,0.05783 0.45976,0.08729 0.6497,0.08729c0.49207,0 0.67527,-0.19268 0.77042,-0.33781c0.38485,-0.58868 0.16651,-1.86894 -0.13882,-2.56655c-0.87408,-1.99668 -3.64402,-7.23126 -5.04391,-8.30784c-0.70473,-0.54219 -1.46343,-0.82855 -2.19443,-0.82855l0,0l0,0l0,0z" id="sole-right-outline" fill="#000000"/>
   <path stroke="null" d="m2.80118,36.78081c-0.53787,0.66035 -0.7168,1.58932 -0.50414,2.61658c0.54249,2.62084 5.20332,7.7039 8.36024,8.46113c0.24106,0.05783 0.45976,0.08729 0.6497,0.08729c0.49207,0 0.67527,-0.19268 0.77042,-0.33781c0.38485,-0.58868 0.16651,-1.86894 -0.13882,-2.56655c-0.87408,-1.99668 -3.64402,-7.23126 -5.04391,-8.30784c-0.70473,-0.54219 -1.46343,-0.82855 -2.19443,-0.82855c-0.76438,0 -1.43929,0.3112 -1.89906,0.87575" id="sole-right" fill="#FFD200"/>
   <path stroke="null" d="m11.30379,21.88787l0,0c-1.16024,0 -2.01906,-0.73522 -2.2413,-1.91897c-0.1445,-0.77071 0.12994,-1.62161 0.77254,-2.39587c0.83467,-1.0049 2.15219,-1.73445 3.13278,-1.73445c0.22083,0 0.42391,0.03619 0.6032,0.10787c0.65219,0.26081 1.14,0.8949 1.30473,1.69613c0.22118,1.07552 -0.1555,2.22626 -1.00793,3.07787c-0.74201,0.74197 -1.6768,1.16742 -2.56402,1.16742l0,0l0,0l0,0zm1.66402,-4.98477c-0.57337,0 -1.62071,0.51593 -2.31302,1.3498c-0.25278,0.30481 -0.66035,0.90733 -0.54497,1.52013c0.16296,0.86794 0.73917,1.05032 1.19397,1.05032c0.59787,0 1.27491,-0.3197 1.811,-0.85587c0.59823,-0.5979 0.86663,-1.38671 0.71787,-2.11093c-0.0923,-0.44958 -0.33799,-0.79413 -0.65716,-0.92152c-0.05219,-0.02093 -0.1239,-0.03193 -0.20769,-0.03193l0,0l0,0l0,0z" id="hand-right-outline" fill="#000000"/>
   <path stroke="null" d="m10.10982,19.77303c0.16296,0.86794 0.73917,1.05032 1.19397,1.05032c0.59787,0 1.27491,-0.3197 1.811,-0.85587c0.59823,-0.5979 0.86663,-1.38671 0.71787,-2.11093c-0.0923,-0.44958 -0.33799,-0.79413 -0.65716,-0.92152c-0.05219,-0.02093 -0.1239,-0.03193 -0.20769,-0.03193c-0.57337,0 -1.62071,0.51593 -2.31302,1.3498c-0.25278,0.30481 -0.66035,0.90733 -0.54497,1.52013" id="hand-right" fill="#FFD200"/>
   <path stroke="null" d="m48.89112,5.66855c-2.12023,0 -5.1568,-0.01774 -7.04023,-0.17032c-0.16403,-0.01313 -0.30888,-0.01313 -0.40261,-0.00533c0.13882,0.22675 0.47929,0.62381 1.0232,1.07694l0.13704,0.11603c3.69976,3.15274 6.48462,3.81487 8.16923,3.81523l0.00071,0c0.60178,0 1.18403,-0.08339 1.73184,-0.24768c2.59917,-0.77923 4.19574,-2.38913 4.82272,-3.63568c0.23396,-0.4659 0.28154,-0.77177 0.28154,-0.91548c-0.35361,-0.03584 -1.27314,-0.05394 -2.74083,-0.05394c-0.78107,0 -1.66935,0.00426 -2.61409,0.00923c-1.07467,0.00532 -2.22284,0.011 -3.36852,0.011" id="ear-left" fill="#FF8800"/>
   <path stroke="null" d="m9.70154,14.12152c-0.04971,0.011 -0.06497,0.02803 -0.06533,0.02803c0.00497,-0.00178 0.03657,0.05784 0.15444,0.13732c0.21586,0.14584 1.09562,0.55568 3.47787,-0.08055c-0.07314,-0.55213 -0.04544,-1.24087 0.1942,-2.05913c-1.39207,0.96765 -2.96201,1.79691 -3.76118,1.97433" id="ear-right" fill="#FF8800"/>
   <path stroke="null" d="m42.85172,48.06539c-1.06474,0.63587 -2.10781,1.14187 -3.10864,1.53787c-3.28474,6.00671 -10.42012,10.62209 -16.61113,10.73955c-3.19775,0.05251 -5.67515,-1.15252 -7.02106,-3.41462c-1.50994,-2.53816 -3.81622,-3.47529 -5.31657,-3.08922c-1.00544,0.25903 -1.58166,1.09716 -1.62249,2.36074c-0.03585,1.10852 0.94332,2.58748 2.61906,3.95645c3.01278,2.46187 8.18272,4.44116 12.9387,3.3149c8.22177,-1.94593 15.60639,-8.29754 18.12213,-15.40567" id="tail" fill="#FF8800"/>
   <path stroke="null" d="m48.3742,14.96284c-0.59538,-1.68158 -1.32674,-3.212 -2.17384,-4.58771c-1.27314,-0.6199 -2.70498,-1.53468 -4.28308,-2.87916l-0.12746,-0.10858c-1.74497,-1.45271 -1.50426,-2.11662 -1.42544,-2.33484c0.06319,-0.17494 0.17538,-0.31155 0.33018,-0.41374c-2.36557,-1.5141 -5.08119,-2.3611 -8.04746,-2.45052c-7.37148,-0.22319 -13.83195,2.91181 -17.28532,8.3859c-0.94403,1.49707 -1.2703,2.85752 -0.94261,3.93516c0.23858,0.78491 0.78604,1.26891 1.18225,1.44491c0.67101,0.29877 4.94024,-1.18232 6.18071,-3.43661c0.07065,-0.12739 0.18994,-0.22107 0.33089,-0.25797c0.14165,-0.03691 0.29112,-0.01491 0.41503,0.06138c2.91266,1.79123 6.18674,0.97226 9.02627,0.06423c0.28118,-0.08906 0.57976,0.06494 0.66959,0.3449c0.04792,0.15046 0.02378,0.30552 -0.05042,0.43184c1.87669,-0.04932 3.75976,0.23668 5.41917,0.89136c0.27338,0.10787 0.40758,0.41693 0.29965,0.69051c-0.10793,0.27358 -0.41752,0.40807 -0.69089,0.29949c-4.08284,-1.61026 -9.61207,-0.82145 -12.58864,1.7969c-1.02071,0.89774 -1.46414,1.76497 -1.24828,2.44165c0.22189,0.69548 1.12722,1.24264 2.25372,1.3608c0.84675,0.088 2.13515,-0.19693 3.50024,-0.49997c2.10355,-0.46661 4.48864,-0.99567 6.61136,-0.55638c3.44024,0.71145 5.72272,2.77413 9.17716,5.89635l0.42107,0.38039c0.21799,0.19693 0.23503,0.53368 0.03799,0.75155c-0.10509,0.11674 -0.24995,0.17564 -0.39515,0.17564c-0.12071,0 -0.24,-0.044 -0.3387,-0.12597c0.34083,1.44917 0.51586,2.937 0.51586,4.44294c0,1.80542 -0.25065,3.58919 -0.74059,5.30697c0.54852,0.31013 1.00934,0.68271 1.33952,1.10993c0.18,0.23242 0.13704,0.56704 -0.0955,0.74623c-0.23219,0.1799 -0.56769,0.13732 -0.74698,-0.09545c-0.91988,-1.18978 -3.26272,-1.88313 -5.57716,-1.65c-1.68533,0.17068 -4.75633,0.97758 -6.49669,4.43335c0.06639,0.17742 0.12142,0.34171 0.16154,0.48613c0.91243,3.12542 0.69657,5.02168 0.00674,7.21955c-0.06781,0.37081 -0.19917,0.81294 -0.39585,1.27352c2.34355,0.00674 6.48035,-0.50778 10.88236,-3.53704c8.33468,-5.73561 7.60154,-23.77667 4.88876,-31.43764" id="left-body" fill="#FFD200"/>
   <path stroke="null" d="m57.99941,4.68813c-0.2574,-0.06458 -0.87053,-0.10432 -3.12568,-0.10432c-0.78249,0 -1.67255,0.00425 -2.61941,0.00922c-1.07325,0.00532 -2.21894,0.011 -3.3632,0.011c-1.96047,0 -4.70875,-0.01526 -6.56662,-0.13838c-2.75361,-2.0712 -6.02237,-3.23223 -9.64545,-3.34188c-7.72509,-0.23667 -14.51361,3.06404 -18.17893,8.82342c-1.40982,1.39062 -4.11941,2.93275 -5.02935,3.13536c-0.42142,0.09332 -0.73917,0.37613 -0.85136,0.7558c-0.1129,0.3843 0.00852,0.80478 0.32414,1.12449c0.28935,0.29168 0.89148,0.65645 2.0961,0.65645c0.64792,0 1.47301,-0.10787 2.51467,-0.38677c0.39124,0.88638 1.06544,1.45058 1.61467,1.69471c1.31219,0.58229 5.5761,-1.1071 7.2561,-3.4391c1.30083,0.69016 2.6542,0.95345 4.0239,0.95132c-0.9497,0.43255 -1.81597,0.96481 -2.53988,1.60174c-1.74,1.53042 -1.80816,2.78265 -1.55929,3.564c0.35326,1.10923 1.59302,1.93175 3.15693,2.09639c1.01822,0.10787 2.32686,-0.1831 3.84213,-0.51948c1.99952,-0.4432 4.26603,-0.94565 6.16508,-0.5532c2.82462,0.58407 4.789,2.15316 7.63847,4.70623c0.61739,1.85581 0.93053,3.79748 0.93053,5.77216c0,1.65036 -0.22225,3.28119 -0.65503,4.85455c-1.22698,-0.45419 -2.71562,-0.64758 -4.20746,-0.49607c-2.94603,0.29842 -5.42343,1.84481 -6.93088,4.28362c-1.10699,-2.16274 -3.25243,-5.00713 -5.61267,-5.00713c-0.5755,0 -1.12296,0.17032 -1.62639,0.506c-2.62686,1.75006 -1.8813,4.862 -1.22414,7.60739c0.17645,0.73629 0.34296,1.43177 0.44272,2.08006c0.12107,0.78774 0.08911,1.74687 0.05858,2.67406c-0.06106,1.83665 -0.12426,3.73539 0.95894,4.85491c0.56449,0.58335 1.37396,0.87929 2.40603,0.87929c2.13444,0 3.51444,-1.11136 4.34166,-2.35365c0.18852,0.0071 0.38805,0.01207 0.60603,0.01207c1.37361,0 3.30995,-0.1721 5.53882,-0.85162c-3.33053,5.17284 -9.59574,9.02391 -15.06745,9.12788c-1.96225,0.04258 -4.62178,-0.43468 -6.08557,-2.89478c-1.77763,-2.9881 -4.61503,-4.06148 -6.49739,-3.57571c-1.48261,0.38145 -2.36485,1.60565 -2.4213,3.35713c-0.04722,1.4591 1.04982,3.21413 3.00923,4.81481c2.57609,2.10455 6.63834,3.87696 10.78011,3.87696c1.02817,0 2.06166,-0.10929 3.07847,-0.34987c9.03301,-2.13861 17.10177,-9.41458 19.27384,-17.34593c4.88521,-3.48842 6.44024,-10.42232 6.88048,-15.65584c0.56094,-6.67168 -0.47539,-13.29439 -1.75137,-16.89777c-0.45088,-1.27352 -0.98059,-2.4601 -1.57242,-3.56897c1.18651,0.39777 2.18592,0.52693 2.97195,0.52693l0.00071,0c0.70545,0 1.39065,-0.09864 2.03787,-0.29238c4.15456,-1.24584 5.89278,-4.31591 5.86296,-5.60717c-0.01172,-0.50883 -0.26627,-0.87467 -0.67988,-0.97793l0,0l0,0l0,0zm-44.73089,9.51819c-2.38225,0.63623 -3.26201,0.22639 -3.47787,0.08055c-0.11787,-0.07948 -0.14947,-0.1391 -0.15444,-0.13732c0.00036,0 0.01562,-0.01703 0.06533,-0.02803c0.79917,-0.17742 2.36911,-1.00668 3.76118,-1.97433c-0.23964,0.81826 -0.26734,1.507 -0.1942,2.05913l0,0l0,0l0,0zm18.36249,34.07481c-0.00959,0.0291 -0.01705,0.06103 -0.02237,0.09155c-0.02592,0.14477 -0.66959,3.55193 -3.91598,3.55193c-0.64154,0 -1.09455,-0.14619 -1.38532,-0.44674c-0.66462,-0.68661 -0.61172,-2.28019 -0.56059,-3.8209c0.03301,-0.99213 0.06745,-2.01868 -0.07421,-2.93736c-0.10863,-0.70613 -0.2897,-1.46264 -0.46473,-2.19396c-0.70828,-2.95688 -1.04663,-4.97875 0.63018,-6.09649c0.27018,-0.1799 0.54461,-0.26755 0.83893,-0.26755c1.91503,0 4.42225,3.77407 4.94947,5.67174c0.82402,2.82381 0.63763,4.44436 0.00462,6.44778l0,0l0,0l0,0zm-6.90142,15.18993c-4.75598,1.12626 -9.92592,-0.85303 -12.9387,-3.3149c-1.67574,-1.36897 -2.65491,-2.84793 -2.61906,-3.95645c0.04083,-1.26358 0.61705,-2.10171 1.62249,-2.36074c1.50035,-0.38607 3.80663,0.55106 5.31657,3.08922c1.34591,2.2621 3.82331,3.46713 7.02106,3.41462c6.19101,-0.11746 13.32639,-4.73284 16.61113,-10.73955c1.00083,-0.396 2.0439,-0.902 3.10864,-1.53787c-2.51574,7.10813 -9.90036,13.45974 -18.12213,15.40567l0,0l0,0l0,0zm23.64461,-48.50822c2.71278,7.66097 3.44592,25.70203 -4.88876,31.43764c-4.40201,3.02926 -8.53881,3.54378 -10.88236,3.53704c0.19668,-0.46058 0.32804,-0.90271 0.39585,-1.27352c0.68983,-2.19787 0.90569,-4.09413 -0.00674,-7.21955c-0.04012,-0.14442 -0.09515,-0.30871 -0.16154,-0.48613c1.74036,-3.45577 4.81136,-4.26267 6.49669,-4.43335c2.31444,-0.23313 4.65728,0.46022 5.57716,1.65c0.17929,0.23277 0.51479,0.27535 0.74698,0.09545c0.23254,-0.17919 0.2755,-0.51381 0.0955,-0.74623c-0.33018,-0.42722 -0.791,-0.7998 -1.33952,-1.10993c0.48994,-1.71778 0.74059,-3.50155 0.74059,-5.30697c0,-1.50594 -0.17503,-2.99377 -0.51586,-4.44294c0.0987,0.08197 0.21799,0.12597 0.3387,0.12597c0.1452,0 0.29006,-0.0589 0.39515,-0.17564c0.19704,-0.21787 0.18,-0.55462 -0.03799,-0.75155l-0.42107,-0.38039c-3.45444,-3.12222 -5.73692,-5.1849 -9.17716,-5.89635c-2.12272,-0.43929 -4.50781,0.08977 -6.61136,0.55638c-1.36509,0.30304 -2.65349,0.58797 -3.50024,0.49997c-1.1265,-0.11816 -2.03183,-0.66532 -2.25372,-1.3608c-0.21586,-0.67668 0.22757,-1.54391 1.24828,-2.44165c2.97657,-2.61835 8.5058,-3.40716 12.58864,-1.7969c0.27337,0.10858 0.58296,-0.02591 0.69089,-0.29949c0.10793,-0.27358 -0.02627,-0.58264 -0.29965,-0.69051c-1.65941,-0.65468 -3.54248,-0.94068 -5.41917,-0.89136c0.0742,-0.12632 0.09834,-0.28138 0.05042,-0.43184c-0.08983,-0.27996 -0.38841,-0.43396 -0.66959,-0.3449c-2.83953,0.90803 -6.11361,1.727 -9.02627,-0.06423c-0.12391,-0.07629 -0.27338,-0.09829 -0.41503,-0.06138c-0.14095,0.0369 -0.26024,0.13058 -0.33089,0.25797c-1.24047,2.25429 -5.5097,3.73538 -6.18071,3.43661c-0.39621,-0.176 -0.94367,-0.66 -1.18225,-1.44491c-0.32769,-1.07764 -0.00142,-2.43809 0.94261,-3.93516c3.45337,-5.47409 9.91384,-8.60909 17.28532,-8.3859c2.96627,0.08942 5.68189,0.93642 8.04746,2.45052c-0.1548,0.10219 -0.26699,0.2388 -0.33018,0.41374c-0.07882,0.21822 -0.31953,0.88213 1.42544,2.33484l0.12746,0.10858c1.5781,1.34448 3.00994,2.25926 4.28308,2.87916c0.8471,1.37571 1.57846,2.90613 2.17384,4.58771l0,0l0,0l0,0zm8.95882,-8.3451c-0.62698,1.24655 -2.22355,2.85645 -4.82272,3.63568c-0.54781,0.16429 -1.13006,0.24768 -1.73184,0.24768l-0.00071,0c-1.68461,-0.00036 -4.46947,-0.66249 -8.16923,-3.81523l-0.13704,-0.11603c-0.54391,-0.45313 -0.88438,-0.85019 -1.0232,-1.07694c0.09373,-0.0078 0.23858,-0.0078 0.40261,0.00533c1.88343,0.15258 4.92,0.17032 7.04023,0.17032c1.14568,0 2.29385,-0.00568 3.36852,-0.011c0.94474,-0.00497 1.83302,-0.00923 2.61409,-0.00923c1.46769,0 2.38722,0.0181 2.74083,0.05394c0,0.14371 -0.04758,0.44958 -0.28154,0.91548l0,0l0,0l0,0z" id="left-body-outline" fill="#000000"/>
   <path stroke="null" d="m21.30213,9.69881c-0.84675,0.6348 -0.59148,1.41971 0.35503,1.53787c0.94686,0.11816 1.02071,0.18097 1.89373,-0.47336c0.94651,-0.70967 1.06509,-1.89271 0,-1.77419c-1.06509,0.11852 -1.77515,0.35484 -2.24876,0.70968" id="nose" fill="#000000"/>
   <path stroke="null" d="m18.81692,10.17216c0,0.58797 -0.4768,1.06452 -1.06509,1.06452c-0.58792,0 -1.06508,-0.47655 -1.06508,-1.06452c0,-0.58797 0.47716,-1.06451 1.06508,-1.06451c0.58829,0 1.06509,0.47654 1.06509,1.06451" id="eye-left" fill="#000000"/>
   <path stroke="null" d="m31.12473,7.21529c0,0.58797 -0.4768,1.06452 -1.06509,1.06452c-0.58828,0 -1.06508,-0.47655 -1.06508,-1.06452c0,-0.58797 0.4768,-1.06452 1.06508,-1.06452c0.58829,0 1.06509,0.47655 1.06509,1.06452" id="eye-right" fill="#000000"/>
  </g>
 </g>
</svg>
